<?xml version="1.0" encoding="UTF-8"?>
<svg version="1.1" xmlns="http://www.w3.org/2000/svg" viewBox="0 0 226 188">
<path d="M0 0 C1.23556641 0.01740234 1.23556641 0.01740234 2.49609375 0.03515625 C3.32238281 0.04417969 4.14867187 0.05320312 5 0.0625 C5.63808594 0.07410156 6.27617188 0.08570312 6.93359375 0.09765625 C7.42859375 1.23203125 7.92359375 2.36640625 8.43359375 3.53515625 C9.70119897 5.76020796 10.36219925 6.87274565 12.76953125 7.8203125 C16.95283937 8.38930652 20.80729402 8.02607369 24.93359375 7.09765625 C25.42859375 8.58265625 25.42859375 8.58265625 25.93359375 10.09765625 C26.92359375 10.42765625 27.91359375 10.75765625 28.93359375 11.09765625 C28.91039062 11.9175 28.8871875 12.73734375 28.86328125 13.58203125 C28.84523437 14.6596875 28.8271875 15.73734375 28.80859375 16.84765625 C28.78539062 17.915 28.7621875 18.98234375 28.73828125 20.08203125 C28.93215989 23.07551745 29.24335919 24.65126412 30.93359375 27.09765625 C33.96704045 28.86493483 33.96704045 28.86493483 36.93359375 30.09765625 C36.93359375 33.06765625 36.93359375 36.03765625 36.93359375 39.09765625 C35.17578125 40.00911458 33.41796875 40.92057292 31.66015625 41.83203125 C29.50330737 43.4130698 28.78933388 44.56685035 27.93359375 47.09765625 C28.10718175 49.67667803 28.5628218 52.12039066 29.03515625 54.66015625 C28.93359375 57.09765625 28.93359375 57.09765625 27.3359375 59.3984375 C24.27639022 61.56250753 22.57724827 61.48263412 18.87109375 61.28515625 C14.32513666 61.0644083 14.32513666 61.0644083 9.93359375 62.09765625 C8.21791714 65.60060496 8.21791714 65.60060496 6.93359375 69.09765625 C3.882882 69.38545925 0.97299113 69.54494345 -2.06640625 69.09765625 C-4.17002321 66.67530945 -5.06640625 65.31519991 -5.06640625 62.09765625 C-5.80890625 61.95328125 -6.55140625 61.80890625 -7.31640625 61.66015625 C-10.06640625 61.09765625 -10.06640625 61.09765625 -11.94140625 60.41015625 C-15.23703478 59.92550499 -17.94923796 61.078582 -21.06640625 62.09765625 C-23.4130816 60.43781271 -24.67247601 59.54617041 -26.06640625 57.09765625 C-26.14746155 54.17539953 -25.82168767 51.5058928 -25.36328125 48.62109375 C-24.87091144 45.97596211 -24.87091144 45.97596211 -26.06640625 43.09765625 C-27.69588689 41.87320341 -27.69588689 41.87320341 -29.62890625 40.91015625 C-30.76328125 40.31203125 -31.89765625 39.71390625 -33.06640625 39.09765625 C-33.06640625 36.12765625 -33.06640625 33.15765625 -33.06640625 30.09765625 C-32.11765625 29.70578125 -31.16890625 29.31390625 -30.19140625 28.91015625 C-27.04822992 27.38139432 -27.04822992 27.38139432 -25.62890625 25.03515625 C-25.05103011 22.01735865 -25.29802841 20.10555611 -25.75390625 17.09765625 C-26.21149864 13.27103987 -26.24056221 12.40393052 -24.25390625 8.91015625 C-20.21698189 6.61465024 -17.98305113 7.05110393 -13.515625 7.765625 C-10.53160879 8.1701567 -7.98389644 7.78864077 -5.06640625 7.09765625 C-4.75703125 6.12828125 -4.44765625 5.15890625 -4.12890625 4.16015625 C-2.73035354 0.12903372 -2.73035354 0.12903372 0 0 Z " fill="currentColor" transform="translate(119.06640625,30.90234375)"/>
<path d="M0 0 C3.05071175 -0.287803 5.96060262 -0.4472872 9 0 C11.10361696 2.4223468 12 3.78245634 12 7 C17.15673777 8.85119 17.15673777 8.85119 22.25 8.0625 C23.11625 7.5365625 23.11625 7.5365625 24 7 C26.62250103 7.16390631 28.05026043 8.02988458 30.3125 9.375 C32.73328194 13.14066079 31.86140928 16.04147495 31.1640625 20.34375 C30.97966329 23.32926104 31.26799209 24.58374205 33 27 C34.69950428 28.10493335 34.69950428 28.10493335 36.625 28.75 C37.73875 29.1625 38.8525 29.575 40 30 C40 32.97 40 35.94 40 39 C38.2421875 39.65104167 36.484375 40.30208333 34.7265625 40.953125 C32.41718754 42.3533795 31.83824803 43.4404298 31 46 C31.16048541 48.6644573 31.16048541 48.6644573 31.6875 51.4375 C32.11843097 55.4613179 32.21943807 56.60652484 30.1875 60.25 C26.16806226 62.45675013 23.81632838 62.08581524 19.40234375 61.296875 C16.85599068 60.98220373 15.3624637 61.0076645 13 62 C11.66847803 63.60808341 11.66847803 63.60808341 10.75 65.5625 C10.1725 66.696875 9.595 67.83125 9 69 C6.03 69 3.06 69 0 69 C-0.61875 67.576875 -0.61875 67.576875 -1.25 66.125 C-3.10422437 62.81388506 -3.57629301 62.22104235 -7 61 C-9.6891321 60.90761358 -9.6891321 60.90761358 -12.5 61.125 C-15.92932138 61.16167723 -17.65066923 61.17466538 -20.75 59.625 C-22.46870548 56.01571848 -21.87107393 53.30529552 -21.296875 49.41796875 C-20.96788941 46.73846768 -21.22482732 44.58390893 -22 42 C-22.94875 41.690625 -23.8975 41.38125 -24.875 41.0625 C-28 40 -28 40 -30 39 C-30 36.03 -30 33.06 -30 30 C-27.36328125 28.6328125 -27.36328125 28.6328125 -24.7265625 27.265625 C-22.57127088 25.68572797 -21.85638655 24.52816242 -21 22 C-21.12153197 19.56405091 -21.12153197 19.56405091 -21.625 17.0625 C-22.02767369 13.57266133 -22.06518187 12.16621376 -20.75 8.8125 C-16.88973731 6.26823595 -14.09520737 7.03859764 -9.65625 7.80078125 C-6.66491499 8.02513138 -5.43618004 7.7085599 -3 6 C-1.23272142 2.9665533 -1.23272142 2.9665533 0 0 Z " fill="currentColor" transform="translate(79,90)"/>
<path d="M0 0 C3.22728284 1.75118674 5.07494454 3.12608869 7.12890625 6.20703125 C7.7951547 10.28166649 8.07386719 14.45059828 6.078125 18.16015625 C3.68924218 21.06345926 1.74361885 23.02987753 -2.04296875 23.4453125 C-6.44254571 23.57196699 -9.31845022 23.46361575 -13.37109375 21.58203125 C-16.31070372 18.78940177 -17.16848327 17.18849064 -17.87109375 13.20703125 C-17.79360416 8.79012437 -17.38364834 6.83040845 -14.55859375 3.39453125 C-9.98621664 -0.32717105 -5.90879303 -2.50414402 0 0 Z " fill="none" stroke="currentColor" stroke-width="2" transform="translate(125.87109375,53.79296875)"/>
<path d="M0 0 C3.50252011 2.04313673 5.77361702 4.09787233 7 8 C7.46931049 12.2237944 7.28387834 14.45327135 5.3125 18.25 C1.97439585 22.21963737 -0.25792104 23.77828086 -5.4375 24.4375 C-9.68345227 23.91606726 -11.73817577 22.73082959 -15 20 C-17.588205 15.80076944 -17.55720007 11.80049289 -17 7 C-13.77786486 -0.57201757 -7.47480704 -0.99341034 0 0 Z " fill="none" stroke="currentColor" stroke-width="2" transform="translate(89,113)"/>
</svg>